<svg xmlns="http://www.w3.org/2000/svg" viewBox="0 0 260 200" font-family="Nunito,Arial,sans-serif">
  <rect width="260" height="200" fill="#ffffff"/>
  <text x="130" y="12" font-size="9" font-weight="700" text-anchor="middle" fill="#333">Chiffre d'affaires d'une entreprise (millions d'euros)</text>

  <line x1="35" y1="20" x2="35" y2="150" stroke="#888" stroke-width="1"/>
  <line x1="35" y1="150" x2="235" y2="150" stroke="#888" stroke-width="1"/>

  <g font-size="8" fill="#666" text-anchor="end">
    <text x="31" y="23">90</text>
    <text x="31" y="63">60</text>
    <text x="31" y="103">30</text>
    <text x="31" y="153">0</text>
  </g>

  <polyline points="35,77.8 68.33,66.2 101.67,59 135,50.3 168.33,41.7 201.67,34.4 235,22.9"
            fill="none" stroke="#4a7ebc" stroke-width="2.2"/>
  <g fill="#2c5a8c">
    <circle cx="35" cy="77.8" r="2.8"/><circle cx="68.33" cy="66.2" r="2.8"/><circle cx="101.67" cy="59" r="2.8"/>
    <circle cx="135" cy="50.3" r="2.8"/><circle cx="168.33" cy="41.7" r="2.8"/><circle cx="201.67" cy="34.4" r="2.8"/>
    <circle cx="235" cy="22.9" r="2.8"/>
  </g>

  <g font-size="7.5" fill="#666" text-anchor="middle">
    <text x="35" y="163">2016</text><text x="68.33" y="163">2017</text><text x="101.67" y="163">2018</text>
    <text x="135" y="163">2019</text><text x="168.33" y="163">2021</text><text x="201.67" y="163">2022</text>
    <text x="235" y="163">2023</text>
  </g>
</svg>
