<svg xmlns="http://www.w3.org/2000/svg" viewBox="0 0 400 250">
  <rect width="400" height="250" fill="#ffffff"/>
  <line x1="50" y1="200" x2="350" y2="200" stroke="#999" stroke-width="2"/>
  <!-- Femme : dessinée à l'échelle réelle (165 cm) -->
  <g transform="translate(84.6,109.3) scale(3.78)">
    <circle cx="12" cy="4" r="3.2" fill="#c05a8c" stroke="#8c3a60" stroke-width="0.5"/>
    <path d="M12,7.5 C10.2,7.5 9.2,9 8.7,11 L6.8,17.5 L10.2,17.5 L10.2,24 L13.8,24 L13.8,17.5 L17.2,17.5 L15.3,11 C14.8,9 13.8,7.5 12,7.5 Z" fill="#c05a8c" stroke="#8c3a60" stroke-width="0.5"/>
  </g>
  <!-- Homme : dessiné démesurément grand (comme s'il mesurait ~280 cm) -->
  <g transform="translate(193,45.9) scale(6.42)">
    <circle cx="12" cy="4.5" r="3.5" fill="#4a7ebc" stroke="#2c5a8c" stroke-width="0.5"/>
    <path d="M12,9 C7.5,9 5.5,13 5.5,17 L5.5,24 L18.5,24 L18.5,17 C18.5,13 16.5,9 12,9 Z" fill="#4a7ebc" stroke="#2c5a8c" stroke-width="0.5"/>
  </g>
  <text x="130" y="225" font-family="Calibri,Arial,sans-serif" font-size="17" font-weight="bold" text-anchor="middle" fill="#333">&#9792; 165 cm</text>
  <text x="270" y="225" font-family="Calibri,Arial,sans-serif" font-size="17" font-weight="bold" text-anchor="middle" fill="#333">&#9794; 178 cm</text>
</svg>
